<svg xmlns="http://www.w3.org/2000/svg" width="192" height="192" viewBox="0 0 192 192" fill="none">
  <defs>
    <linearGradient id="bg" x1="12" y1="12" x2="180" y2="180" gradientUnits="userSpaceOnUse">
      <stop stop-color="#10B981"/>
      <stop offset="1" stop-color="#06B6D4"/>
    </linearGradient>
  </defs>
  <rect x="12" y="12" width="168" height="168" rx="40" fill="url(#bg)"/>
  <path d="M78 56L132 45V116C132 128 122 138 110 138C98 138 88 128 88 116C88 104 98 94 110 94C114 94 118 95 121 97V68L86 75V127C86 139 76 149 64 149C52 149 42 139 42 127C42 115 52 105 64 105C68 105 72 106 75 108V56H78Z" fill="#0A0A0A"/>
</svg>
