<svg xmlns="http://www.w3.org/2000/svg" width="512" height="512" viewBox="0 0 512 512" fill="none">
  <defs>
    <linearGradient id="bg" x1="0" y1="0" x2="512" y2="512" gradientUnits="userSpaceOnUse">
      <stop stop-color="#10B981"/>
      <stop offset="1" stop-color="#06B6D4"/>
    </linearGradient>
  </defs>
  <rect width="512" height="512" rx="140" fill="url(#bg)"/>
  <path d="M208 144L352 114V304C352 336 326 362 294 362C262 362 236 336 236 304C236 272 262 246 294 246C304 246 314 248 322 253V177L228 196V333C228 365 202 391 170 391C138 391 112 365 112 333C112 301 138 275 170 275C180 275 190 278 198 283V144H208Z" fill="#0A0A0A"/>
</svg>
